HIERARCHY
ROOT pelvis
{
  OFFSET 0 100 0
  CHANNELS 6 Xposition Yposition Zposition Zrotation Xrotation Yrotation
  JOINT pelvis_right_femur
  {
    OFFSET -10.78128 -3.44521 -0.5502486
    CHANNELS 3 Zrotation Xrotation Yrotation
    JOINT right_femur_tibia
    {
      OFFSET -0.8047443 -44.0398 -0.1307829
      CHANNELS 3 Zrotation Xrotation Yrotation
      JOINT right_tibia_foot
      {
        OFFSET 3.006224 -47.83518 -5
        CHANNELS 3 Zrotation Xrotation Yrotation
        End Site
        {
          OFFSET 0 -5 15
        }
      }
    }
  }
  JOINT pelvis_left_femur
  {
    OFFSET 10.78128 -3.44521 -0.5502486
    CHANNELS 3 Zrotation Xrotation Yrotation
    JOINT left_femur_tibia
    {
      OFFSET 0.8047443 -44.0398 -0.1307829
      CHANNELS 3 Zrotation Xrotation Yrotation
      JOINT left_tibia_foot
      {
        OFFSET -4.370144 -48.10324 -4.275266
        CHANNELS 3 Zrotation Xrotation Yrotation
        End Site
        {
          OFFSET 0 -5 15
        }
      }
    }
  }
  JOINT pelvis_spine1
  {
    OFFSET 0 6.468898 -3.129235
    CHANNELS 3 Zrotation Xrotation Yrotation
    JOINT spine1
    {
      OFFSET 0 23.15396 4.99043
      CHANNELS 3 Zrotation Xrotation Yrotation
      JOINT spine2
      {
        OFFSET 0 20.79997 -5.064912
        CHANNELS 3 Zrotation Xrotation Yrotation
        JOINT neck
        {
          OFFSET 0 14.38658 9.616178
          CHANNELS 3 Zrotation Xrotation Yrotation
          End Site
          {
            OFFSET 0 20 0
          }
        }
      }
      JOINT right_manubrium
      {
        OFFSET -5.722621 16.35077 3.967754
        CHANNELS 3 Zrotation Xrotation Yrotation
        JOINT right_clavicle
        {
          OFFSET -13.16364 1.694482 -4.693211
          CHANNELS 3 Zrotation Xrotation Yrotation
          JOINT right_humerus
          {
            OFFSET -28.5034 -0.3100689 -2.792744
            CHANNELS 3 Zrotation Xrotation Yrotation
            JOINT right_radius
            {
              OFFSET -25.15693 0.02248979 -1.271978
              CHANNELS 3 Zrotation Xrotation Yrotation
              End Site
              {
                OFFSET -15 0 0
              }
            }
          }
        }
      }
      JOINT left_manubrium
      {
        OFFSET 5.722621 16.35077 3.967754
        CHANNELS 3 Zrotation Xrotation Yrotation
        JOINT left_clavicle
        {
          OFFSET 13.16364 1.694482 -4.693211
          CHANNELS 3 Zrotation Xrotation Yrotation
          JOINT left_humerus
          {
            OFFSET 29.39168 -1.063119 -2.237045
            CHANNELS 3 Zrotation Xrotation Yrotation
            JOINT left_radius
            {
              OFFSET 24.59957 -0.9528479 0.9047498
              CHANNELS 3 Zrotation Xrotation Yrotation
              End Site
              {
                OFFSET 15 -0 -0
              }
            }
          }
        }
      }
    }
  }
}
MOTION
Frames: 7
Frame Time: 0.0416666666667
0 103.5113 0 1.643472 -3.465148 0.1920479 1.728882 -13.7035 6.544347 -0 38.72578 -0 -7.091935 -16.25782 -4.674821 -6.798662 12.32618 -24.80132 -0 5.002267 -0 -0.7520433 -21.96578 23.0576 -4.082296 -2.519049 3.362826 1.619817 7.840859 -7.353614 0.8657018 24.38252 7.473962 4.154846 -21.88078 8.040494 5.868799 -19.00353 11.00194 86.9917 34.80013 -21.41584 -0 0 15.64871 -8.177266 6.480617 4.586698 4.094073 -18.82219 -4.292766 -101.0768 42.40372 28.73864 0 0 -20.05172 -12.59286 17.18637 28.82554
0.114354 103.4989 0.8657445 1.244424 -2.889463 0.2736584 2.296494 -15.39928 6.773149 -0 38.48382 -0 -7.405034 -15.80185 -4.545268 -6.538728 12.51886 -24.77135 -0 4.416274 -0 -0.9984836 -22.43586 22.83948 -3.736519 -2.404033 3.338421 1.683537 7.716102 -7.466445 0.9074645 24.09614 7.549665 4.213544 -22.48637 8.198094 5.73256 -19.15975 10.92721 87.05598 34.51497 -21.49809 -0 0 15.77097 -7.646717 6.136024 4.403711 4.304162 -18.9836 -3.972493 -101.2465 42.17252 29.0126 0 0 -20.28625 -12.01704 17.21211 28.44679
0.1893129 103.3456 2.888647 0.6184643 -1.007608 0.5153838 3.206325 -21.1524 5.717584 -0 31.91772 -0 -6.127136 -11.93887 -4.29442 -5.786467 14.32708 -22.63615 -0 4.101216 -0 -1.765609 -23.01387 20.24301 -3.444396 -1.92659 2.803238 2.183246 7.470035 -7.8442 0.9123742 22.96457 7.940094 4.250394 -22.97077 8.562315 5.945167 -17.93421 11.00341 87.10948 35.50495 -21.92345 -0 0 14.4153 -9.229191 8.62163 5.34103 5.145828 -19.5948 -3.451046 -96.65105 39.11476 24.15138 0 0 -22.16105 -8.7787 16.54612 24.59971
0.2632939 103.1262 5.352154 0.0169184 0.04266139 0.854755 4.075581 -24.26809 5.702742 -0 29.75691 -0 -6.09217 -10.31956 -4.106128 -5.327734 15.02253 -21.86782 -0 4.285071 -0 -2.376356 -23.32441 19.12803 -2.966292 -1.682688 2.617075 2.392475 7.323443 -8.07741 0.9355097 22.3569 8.131088 4.322737 -23.67745 8.79524 5.887844 -17.68047 10.97422 87.24794 35.51449 -22.19175 -0 0 14.01569 -9.260651 9.07027 5.46412 5.542178 -19.93471 -3.029077 -95.5075 37.84673 23.01344 0 0 -22.91319 -7.230124 16.24461 23.04334
0.3281131 102.8902 8.331881 -0.7024273 1.119292 1.265982 5.083191 -27.59041 5.551051 -0 27.34732 -0 -6.23322 -8.461296 -3.876479 -4.772686 15.80319 -20.95708 -0 5.260575 -0 -3.625205 -23.55413 17.48924 -2.337883 -1.35554 2.357225 2.558399 7.089455 -8.30733 0.95635 21.77649 8.335872 4.466125 -24.32592 8.96173 5.808254 -17.27854 10.9068 87.46078 35.50715 -22.55693 -0 0 13.5138 -9.341097 9.530418 5.540497 5.929609 -20.29397 -2.677214 -94.51868 36.8399 21.97259 0 0 -23.76558 -6.028244 15.96612 21.93555
0.391638 102.6612 11.75679 -1.356245 1.979618 1.713892 6.004614 -30.14504 5.470951 -0 25.35983 -0 -6.440675 -6.932489 -3.671938 -4.302069 16.33464 -20.12601 -0 6.904911 -0 -4.87945 -23.44062 15.93733 -1.728986 -1.067896 2.149726 2.68914 6.907852 -8.497225 0.9703912 21.30712 8.485416 4.581162 -24.87775 9.070865 5.744493 -16.92451 10.86224 87.67535 35.47761 -22.88099 -0 0 13.06188 -9.419611 9.925936 5.613204 6.172812 -20.55899 -2.419571 -93.81615 36.02528 21.25124 0 0 -24.37137 -5.113019 15.7118 21.15056
0.46111 102.4809 15.59955 -1.978314 2.693566 2.165411 6.88301 -32.11264 5.395772 -0 23.56253 -0 -6.714348 -5.608203 -3.475276 -3.877633 16.63377 -19.29135 -0 9.340127 -0 -6.231123 -22.97858 14.33274 -1.104154 -0.7899167 1.979874 2.794342 6.755431 -8.653952 0.9807057 20.92029 8.583297 4.670149 -25.357 9.122963 5.695886 -16.57603 10.83885 87.89629 35.44583 -23.17333 -0 0 12.62314 -9.532623 10.32167 5.705413 6.287127 -20.74244 -2.241892 -93.30577 35.35505 20.75529 0 0 -24.77961 -4.432964 15.48284 20.64782
